<svg width="664" height="504" fill="none" xmlns="http://www.w3.org/2000/svg"><path d="M153.92 383.105c-109.736-85.315 1.522-255.582 70.819-322.24 69.297-66.658 228.371-27.95 321.546 223.152 52.421 141.269-154.835 283.757-392.365 99.088z" fill="#FFF9F5"/><path d="M563.671 269.498c1.146-5.944-3.788-8.26-10.187-9.494-6.398-1.233-11.839-.917-12.985 5.027-1.146 5.944 3.112 11.762 9.511 12.996 6.399 1.234 12.515-2.585 13.661-8.529z" fill="#7BB5FB"/><path d="M92.665 244.801c-6.744-3.295-10.91 1.442-14.205 8.185-3.296 6.744-.896 9.742 5.848 13.038 6.744 3.296 11.304 3.699 14.6-3.044 3.296-6.744.5-14.883-6.243-18.179z" fill="#FFDDBF"/><path d="M581.818 180.059c4.241-6.679 4.274-9.901-2.405-14.142s-13.033-6.2-17.275.479c-4.241 6.68-2.264 15.533 4.415 19.774 6.679 4.241 11.023.568 15.265-6.111zm-237.986 54.819c37.913 0 56.6-35.318 56.6-67.562s-18.482-48.259-61.221-54.291c-43.893-3.62-62.375 35.319-62.375 67.562 0 32.244 29.082 54.291 66.996 54.291z" fill="#B7EB6E"/><path d="M219.484 271.851l-.083-134.801a8 8 0 018-8.004h21.074m246.399 201.19l53.46 30.865c15.948 9.208 9.415 33.588-9.001 33.588l-417.396-.003c-18.206 0-24.904-23.934-9.344-33.385l74.411-45.191a24.008 24.008 0 0112.455-3.487l231.831-.029a23.999 23.999 0 0114.56 4.918l62.987 48.051c3.043 2.321 1.402 7.18-2.426 7.18h-356.1c-3.829 0-5.469-4.862-2.423-7.182l51.118-38.937a12.001 12.001 0 017.272-2.454l251.898-.003c11.046-.001 20-8.955 20-20V126.375c0-9.941-8.059-18-18-18h-30.172M187.026 335.749h282.73m19.628 14.974H167.369m161.879 22.02v-48.577m-101.189.014l-35.794 48.563m67.863-48.574l-18.109 48.574m50.427-48.577l-6.84 48.577m139.636-48.577l36.143 48.577m-68.645-48.577l18.731 48.577m-51.319-48.577l7.486 48.577M131.247 98.403v10.405m0 12.486V131.7m-16.648-16.649h10.405m12.486 0h10.405m191.029 160.597c-78.163-42.916-92.94-98.768-91.094-187.979 23.024 15.592 75.186 15.53 91.026-11.053 15.852 26.572 68.007 26.655 91.034 11.053 1.899 89.206-12.815 145.056-90.966 187.979zm0 0l.002-.073m-91.197-167.2h-31.033c-9.941 0-18 8.059-18 18v154.464c0 9.941 8.059 18 18 18h226.748c7.733 0 14.002-6.27 14-14.003l-.037-147.792a8 8 0 00-8-7.998h-20.135m142.592 38.955a8.324 8.324 0 11-16.647 0 8.324 8.324 0 0116.647 0zm-246.339 20.671l42.228-42.228a8 8 0 0111.313 0l.33.33a8 8 0 010 11.314l-48.217 48.217a8 8 0 01-11.314 0l-20.973-20.974a8 8 0 010-11.314l.333-.332a8 8 0 0111.313 0l14.987 14.987z" stroke="#071D2B" stroke-width="1.5" stroke-miterlimit="10" stroke-linecap="round" stroke-linejoin="round"/></svg>